<?xml version="1.0" encoding="utf-8"?>
<!-- Generator: Adobe Illustrator 23.0.1, SVG Export Plug-In . SVG Version: 6.00 Build 0)  -->
<svg version="1.1" id="Layer_1" xmlns="http://www.w3.org/2000/svg" xmlns:xlink="http://www.w3.org/1999/xlink" x="0px" y="0px"
	 viewBox="0 0 64 64" style="enable-background:new 0 0 64 64;" xml:space="preserve">
<style type="text/css">
	.st0{fill:#FFEFE4;}
	.st1{fill:#69EBFC;}
	.st2{fill:#EDD4C2;}
	.st3{fill:#CFB6A4;}
	.st4{fill:#D476E2;}
	.st5{fill:#5861C7;}
	.st6{fill:#FF8354;}
	.st7{fill:#6770E6;}
	.st8{fill:#3A43A9;}
	.st9{fill:#B665C2;}
	.st10{fill:#EA82FA;}
	.st11{fill:#5FD4E3;}
	.st12{fill:#69FFFF;}
	.st13{fill:#858EFF;}
	.st14{fill:#FFA171;}
	.st15{fill:#FFF7F2;}
	.st16{fill:#E0734A;}
	.st17{fill:#FFBF8F;}
	.st18{fill:#A1F1FC;}
	.st19{fill:#7DB6C5;}
	.st20{fill:#F0E0D5;}
	.st21{fill:#8F95E6;}
	.st22{fill:#FFAC8C;}
	.st23{fill:#BFFFFC;}
	.st24{fill:#FFFFFF;}
	.st25{fill:#FFDEC7;}
	.st26{fill:#FFA0FF;}
	.st27{fill:#C2552C;}
	.st28{fill:#FFCAAA;}
	.st29{fill:#4E57BD;}
	.st30{fill:#4952B8;}
	.st31{fill:#5D66DC;}
	.st32{fill:#7B84FA;}
	.st33{fill:#BFFFFF;}
</style>
<g>
	<circle class="st1" cx="32" cy="32" r="32"/>
	<path class="st18" d="M32,2c17.338,0,31.445,13.791,31.975,31C63.985,32.667,64,32.335,64,32C64,14.327,49.673,0,32,0
		S0,14.327,0,32c0,0.335,0.015,0.667,0.025,1C0.555,15.791,14.662,2,32,2z"/>
	<path class="st11" d="M32,62C14.662,62,0.555,48.209,0.025,31C0.015,31.333,0,31.665,0,32c0,17.673,14.327,32,32,32
		s32-14.327,32-32c0-0.335-0.015-0.667-0.025-1C63.445,48.209,49.338,62,32,62z"/>
	<path class="st11" d="M4.894,15H12c1.105,0,2-0.895,2-2v-1c0-1.105,0.895-2,2-2h14c1.105,0,2-0.895,2-2V0
		C20.575,0,10.555,5.992,4.894,15z"/>
	<path class="st1" d="M30.071,0.063c-0.192,0.011-0.383,0.029-0.574,0.044c-0.459,0.036-0.916,0.08-1.37,0.135
		c-0.199,0.024-0.398,0.048-0.596,0.076c-0.508,0.071-1.013,0.155-1.513,0.249c-0.115,0.022-0.232,0.039-0.347,0.062
		c-0.619,0.124-1.231,0.267-1.836,0.426c-0.125,0.033-0.247,0.071-0.37,0.105c-0.484,0.134-0.964,0.278-1.439,0.434
		c-0.163,0.053-0.324,0.108-0.486,0.164c-0.471,0.163-0.937,0.337-1.398,0.521c-0.115,0.046-0.232,0.089-0.346,0.136
		c-1.169,0.483-2.303,1.034-3.398,1.648c-0.095,0.053-0.189,0.109-0.283,0.163c-0.469,0.269-0.931,0.549-1.385,0.841
		c-0.08,0.051-0.16,0.101-0.239,0.153c-1.078,0.707-2.112,1.474-3.093,2.302c-0.008,0.007-0.016,0.014-0.024,0.021
		c-0.478,0.404-0.943,0.823-1.396,1.254c-0.04,0.038-0.081,0.077-0.121,0.115c-1.406,1.35-2.691,2.827-3.833,4.413
		c-0.012,0.017-0.024,0.034-0.036,0.051c-0.379,0.529-0.744,1.07-1.091,1.622c0,0,0,0-0.001,0.001h1.374C12.093,7.117,21.444,2,32,2
		V0C31.352,0,30.709,0.025,30.071,0.063z"/>
	<path class="st11" d="M13.924,58.404c0.226-0.223,0.417-0.484,0.517-0.802l5.117-16.204C19.821,40.566,20.593,40,21.466,40H22
		c1.105,0,2-0.895,2-2v-8c0-1.105-0.895-2-2-2h-6c-1.105,0-2-0.895-2-2v-2c0-1.105-0.895-2-2-2H1.602C0.568,25.147,0,28.506,0,32
		C0,42.965,5.517,52.638,13.924,58.404z"/>
	<path class="st19" d="M0.103,34.449c0.033,0.431,0.072,0.86,0.122,1.287c0.025,0.213,0.052,0.425,0.081,0.637
		c0.058,0.422,0.125,0.841,0.199,1.257c0.033,0.188,0.064,0.377,0.101,0.564c0.108,0.553,0.229,1.101,0.366,1.643
		c0.01,0.039,0.017,0.08,0.027,0.119c0.151,0.591,0.322,1.174,0.505,1.751c0.046,0.144,0.097,0.286,0.145,0.43
		c0.144,0.431,0.295,0.859,0.457,1.282c0.065,0.169,0.132,0.338,0.199,0.506c0.165,0.411,0.339,0.818,0.521,1.22
		c0.066,0.145,0.129,0.292,0.197,0.436c0.242,0.516,0.495,1.025,0.764,1.526c0.01,0.018,0.018,0.036,0.028,0.054
		c0.293,0.544,0.603,1.078,0.927,1.603c0.043,0.069,0.088,0.136,0.131,0.205c0.275,0.439,0.561,0.871,0.856,1.295
		c0.077,0.111,0.156,0.221,0.235,0.33c0.283,0.395,0.574,0.783,0.874,1.165c0.073,0.093,0.145,0.186,0.219,0.278
		c0.769,0.956,1.589,1.869,2.461,2.729c0.002,0.002,0.004,0.003,0.005,0.005c0.423,0.417,0.859,0.821,1.305,1.214
		c0.074,0.065,0.148,0.129,0.223,0.193c0.392,0.34,0.792,0.67,1.2,0.991c0.076,0.06,0.152,0.121,0.229,0.18
		c0.472,0.364,0.952,0.717,1.444,1.055c0,0,0.001,0.001,0.002,0.001c0.226-0.223,0.417-0.484,0.517-0.802l0.224-0.709
		C6.152,51.391,0.419,41.957,0.034,31.158C0.027,31.44,0,31.716,0,32c0,0.629,0.023,1.252,0.059,1.872
		C0.07,34.065,0.088,34.257,0.103,34.449z"/>
	<path class="st11" d="M42,10v13c0,1.105,0.895,2,2,2h5.661c0.81,0,1.541,0.489,1.849,1.239l5.98,14.523
		C57.799,41.511,58.529,42,59.339,42h3.058C63.432,38.853,64,35.494,64,32c0-9.561-4.198-18.136-10.845-24H44
		C42.895,8,42,8.895,42,10z"/>
	<path class="st19" d="M61.658,42h0.74c0,0,0,0,0,0c0.258-0.784,0.486-1.581,0.684-2.39c0.002-0.009,0.004-0.017,0.006-0.026
		c0.192-0.788,0.354-1.588,0.487-2.398c0.004-0.027,0.01-0.054,0.014-0.081c0.123-0.763,0.214-1.538,0.282-2.318
		c0.013-0.146,0.023-0.293,0.033-0.44C63.962,33.571,64,32.79,64,32c0-0.327-0.017-0.65-0.027-0.974
		C63.851,34.897,63.037,38.593,61.658,42z"/>
	<g>
		<path class="st0" d="M10.001,51.5c-0.56,0-1.097-0.315-1.354-0.854c-0.357-0.747-0.042-1.643,0.706-2l46-22
			c0.747-0.359,1.643-0.042,2,0.706c0.357,0.747,0.042,1.643-0.706,2l-46,22C10.438,51.453,10.218,51.5,10.001,51.5z"/>
	</g>
	<path class="st4" d="M15.705,42.156L10,50l-5.705-7.844C2.803,40.105,2,37.634,2,35.098V35c0-4.418,3.582-8,8-8h0
		c4.418,0,8,3.582,8,8v0.098C18,37.634,17.197,40.105,15.705,42.156z"/>
	<path class="st10" d="M10,27c-4.418,0-8,3.582-8,8v0.098c0,0.348,0.018,0.694,0.048,1.039C2.479,32.125,5.874,29,10,29
		s7.521,3.125,7.952,7.136C17.982,35.792,18,35.446,18,35.098V35C18,30.582,14.418,27,10,27z"/>
	<circle class="st9" cx="10" cy="35" r="5"/>
	<path class="st6" d="M61.705,20.156L56,28l-5.705-7.844C48.803,18.105,48,15.634,48,13.098V13c0-4.418,3.582-8,8-8h0
		c4.418,0,8,3.582,8,8v0.098C64,15.634,63.197,18.105,61.705,20.156z"/>
	<path class="st14" d="M56,5c-4.418,0-8,3.582-8,8v0.098c0,0.348,0.018,0.694,0.048,1.039C48.479,10.125,51.874,7,56,7
		s7.521,3.125,7.952,7.136C63.982,13.792,64,13.446,64,13.098V13C64,8.582,60.418,5,56,5z"/>
	<circle class="st16" cx="56" cy="13" r="5"/>
</g>
</svg>
